{"asset":{"version":"2.0","generator":"THREE.GLTFExporter"},"scenes":[{"nodes":[0],"name":"AuxScene"}],"scene":0,"nodes":[{"mesh":0}],"bufferViews":[{"buffer":0,"byteOffset":0,"byteLength":42192,"target":34962,"byteStride":12},{"buffer":0,"byteOffset":42192,"byteLength":42192,"target":34962,"byteStride":12}],"buffers":[{"byteLength":84384,"uri":"data:application/octet-stream;base64,"}],"accessors":[{"bufferView":0,"componentType":5126,"count":3516,"max":[32,6.699999809265137,149.48684692382812],"min":[-151.89999389648438,0.10000000149011612,-146.01318359375],"type":"VEC3"},{"bufferView":1,"componentType":5126,"count":3516,"max":[0.8772656321525574,1,0.4882999360561371],"min":[-0.799997091293335,0.22812461853027344,-0.6082233786582947],"type":"VEC3"}],"materials":[{"pbrMetallicRoughness":{"baseColorFactor":[0.5019607843137255,0.5019607843137255,0.5019607843137255,1],"metallicFactor":0,"roughnessFactor":1}}],"meshes":[{"primitives":[{"mode":4,"attributes":{"POSITION":0,"NORMAL":1},"material":0}]}]}