{"asset":{"version":"2.0","generator":"THREE.GLTFExporter"},"scenes":[{"nodes":[0],"name":"AuxScene"}],"scene":0,"nodes":[{"mesh":0}],"bufferViews":[{"buffer":0,"byteOffset":0,"byteLength":31068,"target":34962,"byteStride":12},{"buffer":0,"byteOffset":31068,"byteLength":31068,"target":34962,"byteStride":12}],"buffers":[{"byteLength":62136,"uri":"data:application/octet-stream;base64,"}],"accessors":[{"bufferView":0,"componentType":5126,"count":2589,"max":[31.70001220703125,6.699999809265137,149.18682861328125],"min":[-151.60000610351562,0.10000000149011612,-145.7131805419922],"type":"VEC3"},{"bufferView":1,"componentType":5126,"count":2589,"max":[0.8351656198501587,1,0.37139207124710083],"min":[-0.799997091293335,0.5369017124176025,-0.2368401288986206],"type":"VEC3"}],"materials":[{"pbrMetallicRoughness":{"baseColorFactor":[0.5019607843137255,0.5019607843137255,0.5019607843137255,1],"metallicFactor":0,"roughnessFactor":1}}],"meshes":[{"primitives":[{"mode":4,"attributes":{"POSITION":0,"NORMAL":1},"material":0}]}]}