{"asset":{"version":"2.0","generator":"THREE.GLTFExporter"},"scenes":[{"nodes":[0],"name":"AuxScene"}],"scene":0,"nodes":[{"mesh":0}],"bufferViews":[{"buffer":0,"byteOffset":0,"byteLength":24228,"target":34962,"byteStride":12},{"buffer":0,"byteOffset":24228,"byteLength":24228,"target":34962,"byteStride":12}],"buffers":[{"byteLength":48456,"uri":"data:application/octet-stream;base64,"}],"accessors":[{"bufferView":0,"componentType":5126,"count":2019,"max":[149.4000244140625,1.7000000476837158,149.30001831054688],"min":[-149.39999389648438,0.10000000149011612,-159.39999389648438],"type":"VEC3"},{"bufferView":1,"componentType":5126,"count":2019,"max":[0,1,0],"min":[0,1,0],"type":"VEC3"}],"materials":[{"pbrMetallicRoughness":{"baseColorFactor":[0.5019607843137255,0.5019607843137255,0.5019607843137255,1],"metallicFactor":0,"roughnessFactor":1}}],"meshes":[{"primitives":[{"mode":4,"attributes":{"POSITION":0,"NORMAL":1},"material":0}]}]}